<mxfile host="app.diagrams.net" modified="2022-10-28T08:18:23.090Z" agent="5.0 (Windows NT 10.0; Win64; x64) AppleWebKit/537.36 (KHTML, like Gecko) Chrome/106.0.0.0 Safari/537.36" etag="GWGaOxqoGx8jmyDWnzHI" version="20.4.0" type="github">
  <diagram id="AdHYLj17g-t38m89r5ri" name="第 1 页">
    <mxGraphModel dx="2190" dy="722" grid="1" gridSize="10" guides="1" tooltips="1" connect="1" arrows="1" fold="1" page="1" pageScale="1" pageWidth="827" pageHeight="1169" math="0" shadow="0">
      <root>
        <mxCell id="0" />
        <mxCell id="1" parent="0" />
        <mxCell id="n6T7y_WuvBTGDeRkCb5C-9" value="" style="edgeStyle=orthogonalEdgeStyle;rounded=0;orthogonalLoop=1;jettySize=auto;html=1;" parent="1" source="n6T7y_WuvBTGDeRkCb5C-1" target="n6T7y_WuvBTGDeRkCb5C-8" edge="1">
          <mxGeometry relative="1" as="geometry" />
        </mxCell>
        <mxCell id="j8CXM27JcQRQnOEN2meV-1" style="edgeStyle=orthogonalEdgeStyle;rounded=0;orthogonalLoop=1;jettySize=auto;html=1;exitX=1;exitY=0.75;exitDx=0;exitDy=0;entryX=0;entryY=0.5;entryDx=0;entryDy=0;" edge="1" parent="1" source="n6T7y_WuvBTGDeRkCb5C-1" target="n6T7y_WuvBTGDeRkCb5C-4">
          <mxGeometry relative="1" as="geometry">
            <Array as="points">
              <mxPoint x="330" y="345" />
              <mxPoint x="330" y="380" />
              <mxPoint x="-110" y="380" />
              <mxPoint x="-110" y="430" />
            </Array>
          </mxGeometry>
        </mxCell>
        <mxCell id="n6T7y_WuvBTGDeRkCb5C-1" value="捏脸FBX&lt;br&gt;&lt;span style=&quot;font-size: 12px;&quot;&gt;ch_m_face_battle_nielian.FBX&lt;/span&gt;" style="rounded=0;whiteSpace=wrap;html=1;fillColor=#dae8fc;strokeColor=#6c8ebf;" parent="1" vertex="1">
          <mxGeometry x="105" y="300" width="200" height="60" as="geometry" />
        </mxCell>
        <mxCell id="n6T7y_WuvBTGDeRkCb5C-11" style="edgeStyle=orthogonalEdgeStyle;rounded=0;orthogonalLoop=1;jettySize=auto;html=1;exitX=1;exitY=0.5;exitDx=0;exitDy=0;entryX=0;entryY=0.25;entryDx=0;entryDy=0;" parent="1" source="n6T7y_WuvBTGDeRkCb5C-2" target="n6T7y_WuvBTGDeRkCb5C-8" edge="1">
          <mxGeometry relative="1" as="geometry" />
        </mxCell>
        <mxCell id="n6T7y_WuvBTGDeRkCb5C-12" style="edgeStyle=orthogonalEdgeStyle;rounded=0;orthogonalLoop=1;jettySize=auto;html=1;exitX=1;exitY=0.5;exitDx=0;exitDy=0;entryX=0;entryY=0.25;entryDx=0;entryDy=0;" parent="1" source="n6T7y_WuvBTGDeRkCb5C-2" target="n6T7y_WuvBTGDeRkCb5C-3" edge="1">
          <mxGeometry relative="1" as="geometry">
            <Array as="points">
              <mxPoint x="580" y="250" />
              <mxPoint x="580" y="315" />
            </Array>
          </mxGeometry>
        </mxCell>
        <mxCell id="n6T7y_WuvBTGDeRkCb5C-2" value="脸FBX&lt;br&gt;&lt;span style=&quot;font-size: 12px;&quot;&gt;ch_m_face_battle.FBX&lt;/span&gt;" style="rounded=0;whiteSpace=wrap;html=1;fillColor=#dae8fc;strokeColor=#6c8ebf;" parent="1" vertex="1">
          <mxGeometry x="135" y="220" width="170" height="60" as="geometry" />
        </mxCell>
        <mxCell id="n6T7y_WuvBTGDeRkCb5C-18" style="edgeStyle=orthogonalEdgeStyle;rounded=0;orthogonalLoop=1;jettySize=auto;html=1;exitX=1;exitY=0.5;exitDx=0;exitDy=0;entryX=0;entryY=0.25;entryDx=0;entryDy=0;" parent="1" source="n6T7y_WuvBTGDeRkCb5C-3" target="n6T7y_WuvBTGDeRkCb5C-15" edge="1">
          <mxGeometry relative="1" as="geometry" />
        </mxCell>
        <mxCell id="n6T7y_WuvBTGDeRkCb5C-20" style="edgeStyle=orthogonalEdgeStyle;rounded=0;orthogonalLoop=1;jettySize=auto;html=1;exitX=1;exitY=0.75;exitDx=0;exitDy=0;entryX=0;entryY=0.5;entryDx=0;entryDy=0;" parent="1" source="n6T7y_WuvBTGDeRkCb5C-3" target="n6T7y_WuvBTGDeRkCb5C-6" edge="1">
          <mxGeometry relative="1" as="geometry" />
        </mxCell>
        <mxCell id="n6T7y_WuvBTGDeRkCb5C-3" value="基础脸prefab&lt;br&gt;&lt;span style=&quot;font-size: 12px;&quot;&gt;ch_m_face_battle.prefab&lt;br&gt;&lt;/span&gt;" style="rounded=0;whiteSpace=wrap;html=1;fillColor=none;" parent="1" vertex="1">
          <mxGeometry x="620" y="300" width="190" height="60" as="geometry" />
        </mxCell>
        <mxCell id="n6T7y_WuvBTGDeRkCb5C-7" value="" style="edgeStyle=orthogonalEdgeStyle;rounded=0;orthogonalLoop=1;jettySize=auto;html=1;" parent="1" source="n6T7y_WuvBTGDeRkCb5C-4" target="n6T7y_WuvBTGDeRkCb5C-5" edge="1">
          <mxGeometry relative="1" as="geometry" />
        </mxCell>
        <mxCell id="n6T7y_WuvBTGDeRkCb5C-4" value="捏脸模板&lt;br&gt;&lt;span style=&quot;font-size: 12px;&quot;&gt;ch_m_face_template.prefab&lt;br&gt;&lt;/span&gt;" style="rounded=0;whiteSpace=wrap;html=1;fillColor=#dae8fc;strokeColor=#6c8ebf;" parent="1" vertex="1">
          <mxGeometry x="-90" y="400" width="190" height="60" as="geometry" />
        </mxCell>
        <mxCell id="n6T7y_WuvBTGDeRkCb5C-10" style="edgeStyle=orthogonalEdgeStyle;rounded=0;orthogonalLoop=1;jettySize=auto;html=1;exitX=1;exitY=0.5;exitDx=0;exitDy=0;entryX=0;entryY=0.75;entryDx=0;entryDy=0;" parent="1" source="n6T7y_WuvBTGDeRkCb5C-5" target="n6T7y_WuvBTGDeRkCb5C-8" edge="1">
          <mxGeometry relative="1" as="geometry">
            <Array as="points">
              <mxPoint x="338" y="430" />
              <mxPoint x="338" y="345" />
            </Array>
          </mxGeometry>
        </mxCell>
        <mxCell id="n6T7y_WuvBTGDeRkCb5C-14" style="edgeStyle=orthogonalEdgeStyle;rounded=0;orthogonalLoop=1;jettySize=auto;html=1;entryX=0;entryY=0.75;entryDx=0;entryDy=0;" parent="1" source="n6T7y_WuvBTGDeRkCb5C-5" target="n6T7y_WuvBTGDeRkCb5C-3" edge="1">
          <mxGeometry relative="1" as="geometry">
            <Array as="points">
              <mxPoint x="580" y="430" />
              <mxPoint x="580" y="345" />
            </Array>
          </mxGeometry>
        </mxCell>
        <mxCell id="n6T7y_WuvBTGDeRkCb5C-5" value="基础脸模板数据&lt;br&gt;&lt;span style=&quot;font-size: 12px;&quot;&gt;ch_m_avatar_data.asset&lt;/span&gt;" style="rounded=0;whiteSpace=wrap;html=1;fillColor=none;" parent="1" vertex="1">
          <mxGeometry x="125" y="400" width="190" height="60" as="geometry" />
        </mxCell>
        <mxCell id="n6T7y_WuvBTGDeRkCb5C-19" style="edgeStyle=orthogonalEdgeStyle;rounded=0;orthogonalLoop=1;jettySize=auto;html=1;exitX=1;exitY=0.5;exitDx=0;exitDy=0;entryX=0;entryY=0.75;entryDx=0;entryDy=0;" parent="1" source="n6T7y_WuvBTGDeRkCb5C-6" target="n6T7y_WuvBTGDeRkCb5C-15" edge="1">
          <mxGeometry relative="1" as="geometry" />
        </mxCell>
        <mxCell id="n6T7y_WuvBTGDeRkCb5C-6" value="捏脸预制资源&lt;br&gt;&lt;span style=&quot;font-size: 12px;&quot;&gt;male_asian_test.asset&lt;/span&gt;" style="rounded=0;whiteSpace=wrap;html=1;fillColor=#dae8fc;strokeColor=#6c8ebf;" parent="1" vertex="1">
          <mxGeometry x="620" y="440" width="190" height="60" as="geometry" />
        </mxCell>
        <mxCell id="n6T7y_WuvBTGDeRkCb5C-13" style="edgeStyle=orthogonalEdgeStyle;rounded=0;orthogonalLoop=1;jettySize=auto;html=1;exitX=1;exitY=0.5;exitDx=0;exitDy=0;entryX=0;entryY=0.5;entryDx=0;entryDy=0;" parent="1" source="n6T7y_WuvBTGDeRkCb5C-8" target="n6T7y_WuvBTGDeRkCb5C-3" edge="1">
          <mxGeometry relative="1" as="geometry" />
        </mxCell>
        <mxCell id="n6T7y_WuvBTGDeRkCb5C-8" value="meshData&lt;br&gt;&lt;span style=&quot;font-size: 12px;&quot;&gt;ch_m_face_battle_data.asset&lt;/span&gt;" style="rounded=0;whiteSpace=wrap;html=1;fillColor=none;" parent="1" vertex="1">
          <mxGeometry x="360" y="300" width="200" height="60" as="geometry" />
        </mxCell>
        <mxCell id="n6T7y_WuvBTGDeRkCb5C-15" value="&lt;span style=&quot;font-size: 12px;&quot;&gt;结果&lt;br&gt;&lt;/span&gt;" style="rounded=0;whiteSpace=wrap;html=1;fillColor=none;" parent="1" vertex="1">
          <mxGeometry x="910" y="370" width="190" height="60" as="geometry" />
        </mxCell>
      </root>
    </mxGraphModel>
  </diagram>
</mxfile>
